<mxfile host="app.diagrams.net" modified="2024-03-22T09:56:07.779Z" agent="Mozilla/5.0 (Windows NT 10.0; Win64; x64) AppleWebKit/537.36 (KHTML, like Gecko) Chrome/122.0.0.0 Safari/537.36" etag="TH3JsJHbUv5uHinRXFhT" version="24.0.7" type="github" pages="2">
  <diagram name="serverless" id="bz2cJXhlYBcJffawt7Kv">
    <mxGraphModel dx="1050" dy="565" grid="1" gridSize="10" guides="1" tooltips="1" connect="1" arrows="1" fold="1" page="1" pageScale="1" pageWidth="850" pageHeight="1100" math="0" shadow="0">
      <root>
        <mxCell id="0" />
        <mxCell id="1" parent="0" />
        <mxCell id="v-0748TicNtDJmusRZ1o-1" value="Mobile client" style="sketch=0;outlineConnect=0;fontColor=#232F3E;gradientColor=none;strokeColor=#232F3E;fillColor=#ffffff;dashed=0;verticalLabelPosition=bottom;verticalAlign=top;align=center;html=1;fontSize=12;fontStyle=0;aspect=fixed;shape=mxgraph.aws4.resourceIcon;resIcon=mxgraph.aws4.mobile_client;" parent="1" vertex="1">
          <mxGeometry x="10" y="320" width="60" height="60" as="geometry" />
        </mxCell>
        <mxCell id="v-0748TicNtDJmusRZ1o-2" value="" style="sketch=0;outlineConnect=0;fontColor=#232F3E;gradientColor=none;fillColor=#232F3D;strokeColor=none;dashed=0;verticalLabelPosition=bottom;verticalAlign=top;align=center;html=1;fontSize=12;fontStyle=0;aspect=fixed;pointerEvents=1;shape=mxgraph.aws4.client;" parent="1" vertex="1">
          <mxGeometry x="10" y="420" width="78" height="76" as="geometry" />
        </mxCell>
        <mxCell id="v-0748TicNtDJmusRZ1o-3" value="Web Socket API Gateway" style="sketch=0;points=[[0,0,0],[0.25,0,0],[0.5,0,0],[0.75,0,0],[1,0,0],[0,1,0],[0.25,1,0],[0.5,1,0],[0.75,1,0],[1,1,0],[0,0.25,0],[0,0.5,0],[0,0.75,0],[1,0.25,0],[1,0.5,0],[1,0.75,0]];outlineConnect=0;fontColor=#232F3E;fillColor=#E7157B;strokeColor=#ffffff;dashed=0;verticalLabelPosition=bottom;verticalAlign=top;align=center;html=1;fontSize=12;fontStyle=0;aspect=fixed;shape=mxgraph.aws4.resourceIcon;resIcon=mxgraph.aws4.api_gateway;" parent="1" vertex="1">
          <mxGeometry x="160" y="360" width="78" height="78" as="geometry" />
        </mxCell>
        <mxCell id="v-0748TicNtDJmusRZ1o-4" value="" style="sketch=0;outlineConnect=0;fontColor=#232F3E;gradientColor=none;fillColor=#ED7100;strokeColor=none;dashed=0;verticalLabelPosition=bottom;verticalAlign=top;align=center;html=1;fontSize=12;fontStyle=0;aspect=fixed;pointerEvents=1;shape=mxgraph.aws4.lambda_function;" parent="1" vertex="1">
          <mxGeometry x="425" y="200" width="48" height="48" as="geometry" />
        </mxCell>
        <mxCell id="v-0748TicNtDJmusRZ1o-5" value="" style="sketch=0;outlineConnect=0;fontColor=#232F3E;gradientColor=none;fillColor=#ED7100;strokeColor=none;dashed=0;verticalLabelPosition=bottom;verticalAlign=top;align=center;html=1;fontSize=12;fontStyle=0;aspect=fixed;pointerEvents=1;shape=mxgraph.aws4.lambda_function;" parent="1" vertex="1">
          <mxGeometry x="425" y="300" width="48" height="48" as="geometry" />
        </mxCell>
        <mxCell id="v-0748TicNtDJmusRZ1o-6" value="" style="sketch=0;outlineConnect=0;fontColor=#232F3E;gradientColor=none;fillColor=#ED7100;strokeColor=none;dashed=0;verticalLabelPosition=bottom;verticalAlign=top;align=center;html=1;fontSize=12;fontStyle=0;aspect=fixed;pointerEvents=1;shape=mxgraph.aws4.lambda_function;" parent="1" vertex="1">
          <mxGeometry x="425" y="410" width="48" height="48" as="geometry" />
        </mxCell>
        <mxCell id="v-0748TicNtDJmusRZ1o-7" value="" style="sketch=0;outlineConnect=0;fontColor=#232F3E;gradientColor=none;fillColor=#ED7100;strokeColor=none;dashed=0;verticalLabelPosition=bottom;verticalAlign=top;align=center;html=1;fontSize=12;fontStyle=0;aspect=fixed;pointerEvents=1;shape=mxgraph.aws4.lambda_function;" parent="1" vertex="1">
          <mxGeometry x="425" y="492" width="48" height="48" as="geometry" />
        </mxCell>
        <mxCell id="v-0748TicNtDJmusRZ1o-8" value="dynamo DB" style="outlineConnect=0;dashed=0;verticalLabelPosition=bottom;verticalAlign=top;align=center;html=1;shape=mxgraph.aws3.dynamo_db;fillColor=#2E73B8;gradientColor=none;" parent="1" vertex="1">
          <mxGeometry x="625" y="350" width="72" height="81" as="geometry" />
        </mxCell>
        <mxCell id="v-0748TicNtDJmusRZ1o-13" value="" style="endArrow=classic;startArrow=classic;html=1;rounded=0;" parent="1" target="v-0748TicNtDJmusRZ1o-4" edge="1">
          <mxGeometry width="50" height="50" relative="1" as="geometry">
            <mxPoint x="210" y="360" as="sourcePoint" />
            <mxPoint x="260" y="310" as="targetPoint" />
            <Array as="points">
              <mxPoint x="280" y="260" />
            </Array>
          </mxGeometry>
        </mxCell>
        <mxCell id="v-0748TicNtDJmusRZ1o-14" value="$connect route" style="edgeLabel;html=1;align=center;verticalAlign=middle;resizable=0;points=[];" parent="v-0748TicNtDJmusRZ1o-13" vertex="1" connectable="0">
          <mxGeometry x="0.166" relative="1" as="geometry">
            <mxPoint x="-45" y="-5" as="offset" />
          </mxGeometry>
        </mxCell>
        <mxCell id="v-0748TicNtDJmusRZ1o-15" value="" style="endArrow=classic;startArrow=classic;html=1;rounded=0;" parent="1" edge="1">
          <mxGeometry width="50" height="50" relative="1" as="geometry">
            <mxPoint x="240" y="400" as="sourcePoint" />
            <mxPoint x="420" y="320" as="targetPoint" />
          </mxGeometry>
        </mxCell>
        <mxCell id="v-0748TicNtDJmusRZ1o-16" value="$default route" style="edgeLabel;html=1;align=center;verticalAlign=middle;resizable=0;points=[];" parent="v-0748TicNtDJmusRZ1o-15" vertex="1" connectable="0">
          <mxGeometry x="-0.2608" y="2" relative="1" as="geometry">
            <mxPoint x="14" y="-29" as="offset" />
          </mxGeometry>
        </mxCell>
        <mxCell id="v-0748TicNtDJmusRZ1o-17" value="" style="endArrow=classic;startArrow=classic;html=1;rounded=0;exitX=1;exitY=0.75;exitDx=0;exitDy=0;exitPerimeter=0;" parent="1" source="v-0748TicNtDJmusRZ1o-3" target="v-0748TicNtDJmusRZ1o-6" edge="1">
          <mxGeometry width="50" height="50" relative="1" as="geometry">
            <mxPoint x="250" y="410" as="sourcePoint" />
            <mxPoint x="430" y="330" as="targetPoint" />
          </mxGeometry>
        </mxCell>
        <mxCell id="v-0748TicNtDJmusRZ1o-18" value="$send message route" style="edgeLabel;html=1;align=center;verticalAlign=middle;resizable=0;points=[];" parent="v-0748TicNtDJmusRZ1o-17" vertex="1" connectable="0">
          <mxGeometry x="-0.2608" y="2" relative="1" as="geometry">
            <mxPoint x="35" y="-6" as="offset" />
          </mxGeometry>
        </mxCell>
        <mxCell id="v-0748TicNtDJmusRZ1o-19" value="" style="endArrow=classic;startArrow=classic;html=1;rounded=0;" parent="1" target="v-0748TicNtDJmusRZ1o-7" edge="1">
          <mxGeometry width="50" height="50" relative="1" as="geometry">
            <mxPoint x="210" y="460" as="sourcePoint" />
            <mxPoint x="435" y="442" as="targetPoint" />
            <Array as="points">
              <mxPoint x="300" y="520" />
            </Array>
          </mxGeometry>
        </mxCell>
        <mxCell id="v-0748TicNtDJmusRZ1o-20" value="$disconnect route" style="edgeLabel;html=1;align=center;verticalAlign=middle;resizable=0;points=[];" parent="v-0748TicNtDJmusRZ1o-19" vertex="1" connectable="0">
          <mxGeometry x="-0.2608" y="2" relative="1" as="geometry">
            <mxPoint x="17" y="34" as="offset" />
          </mxGeometry>
        </mxCell>
        <mxCell id="v-0748TicNtDJmusRZ1o-21" value="" style="endArrow=classic;startArrow=classic;html=1;rounded=0;" parent="1" edge="1">
          <mxGeometry width="50" height="50" relative="1" as="geometry">
            <mxPoint x="60" y="370" as="sourcePoint" />
            <mxPoint x="150" y="390" as="targetPoint" />
          </mxGeometry>
        </mxCell>
        <mxCell id="v-0748TicNtDJmusRZ1o-22" value="" style="endArrow=classic;startArrow=classic;html=1;rounded=0;" parent="1" edge="1">
          <mxGeometry width="50" height="50" relative="1" as="geometry">
            <mxPoint x="100" y="440" as="sourcePoint" />
            <mxPoint x="160" y="400" as="targetPoint" />
          </mxGeometry>
        </mxCell>
        <mxCell id="Hgnd81LalGCMVuMVIGAU-1" value="" style="endArrow=classic;startArrow=classic;html=1;rounded=0;" parent="1" target="v-0748TicNtDJmusRZ1o-8" edge="1">
          <mxGeometry width="50" height="50" relative="1" as="geometry">
            <mxPoint x="480" y="240" as="sourcePoint" />
            <mxPoint x="520" y="180" as="targetPoint" />
          </mxGeometry>
        </mxCell>
        <mxCell id="Hgnd81LalGCMVuMVIGAU-2" value="" style="endArrow=classic;startArrow=classic;html=1;rounded=0;entryX=0;entryY=0.5;entryDx=0;entryDy=0;entryPerimeter=0;" parent="1" source="v-0748TicNtDJmusRZ1o-6" target="v-0748TicNtDJmusRZ1o-8" edge="1">
          <mxGeometry width="50" height="50" relative="1" as="geometry">
            <mxPoint x="490" y="250" as="sourcePoint" />
            <mxPoint x="635" y="371" as="targetPoint" />
          </mxGeometry>
        </mxCell>
        <mxCell id="Hgnd81LalGCMVuMVIGAU-3" value="" style="endArrow=classic;startArrow=classic;html=1;rounded=0;" parent="1" target="v-0748TicNtDJmusRZ1o-8" edge="1">
          <mxGeometry width="50" height="50" relative="1" as="geometry">
            <mxPoint x="473" y="513" as="sourcePoint" />
            <mxPoint x="635" y="458" as="targetPoint" />
          </mxGeometry>
        </mxCell>
        <mxCell id="_bplAM0HiLYQ9Z9dN7LO-1" value="{&quot;action&quot;: &quot;sendmessage&quot;, &quot;message&quot;: &quot;hello, everyone!&quot;}" style="text;whiteSpace=wrap;" parent="1" vertex="1">
          <mxGeometry x="360" y="60" width="340" height="40" as="geometry" />
        </mxCell>
        <mxCell id="_bplAM0HiLYQ9Z9dN7LO-4" value="Use the sendmessage route to send a message. Your info: {&quot;ConnectedAt&quot;:&quot;2022-01-25T18:50:04.673Z&quot;,&quot;Identity&quot;:{&quot;SourceIp&quot;:&quot;192.0.2.1&quot;,&quot;UserAgent&quot;:null},&quot;LastActiveAt&quot;:&quot;2022-01-25T18:50:07.642Z&quot;,&quot;connectionID&quot;:&quot;Mg_ugfpqPHcCIVA=&quot;}" style="text;whiteSpace=wrap;" parent="1" vertex="1">
          <mxGeometry x="140" y="90" width="560" height="70" as="geometry" />
        </mxCell>
      </root>
    </mxGraphModel>
  </diagram>
  <diagram id="CzxH3AWf9MWAfTofhta9" name="managed-client">
    <mxGraphModel dx="1050" dy="565" grid="1" gridSize="10" guides="1" tooltips="1" connect="1" arrows="1" fold="1" page="1" pageScale="1" pageWidth="850" pageHeight="1100" math="0" shadow="0">
      <root>
        <mxCell id="0" />
        <mxCell id="1" parent="0" />
        <mxCell id="6g2W2QSspoGPn6mh1SmF-1" value="Mobile client" style="sketch=0;outlineConnect=0;fontColor=#232F3E;gradientColor=none;strokeColor=#232F3E;fillColor=#ffffff;dashed=0;verticalLabelPosition=bottom;verticalAlign=top;align=center;html=1;fontSize=12;fontStyle=0;aspect=fixed;shape=mxgraph.aws4.resourceIcon;resIcon=mxgraph.aws4.mobile_client;" parent="1" vertex="1">
          <mxGeometry x="10" y="270" width="60" height="60" as="geometry" />
        </mxCell>
        <mxCell id="6g2W2QSspoGPn6mh1SmF-2" value="" style="sketch=0;outlineConnect=0;fontColor=#232F3E;gradientColor=none;fillColor=#232F3D;strokeColor=none;dashed=0;verticalLabelPosition=bottom;verticalAlign=top;align=center;html=1;fontSize=12;fontStyle=0;aspect=fixed;pointerEvents=1;shape=mxgraph.aws4.client;" parent="1" vertex="1">
          <mxGeometry x="10" y="370" width="78" height="76" as="geometry" />
        </mxCell>
        <mxCell id="6g2W2QSspoGPn6mh1SmF-3" value="" style="endArrow=classic;startArrow=classic;html=1;rounded=0;" parent="1" edge="1">
          <mxGeometry width="50" height="50" relative="1" as="geometry">
            <mxPoint x="60" y="320" as="sourcePoint" />
            <mxPoint x="150" y="340" as="targetPoint" />
          </mxGeometry>
        </mxCell>
        <mxCell id="6g2W2QSspoGPn6mh1SmF-4" value="" style="endArrow=classic;startArrow=classic;html=1;rounded=0;" parent="1" edge="1">
          <mxGeometry width="50" height="50" relative="1" as="geometry">
            <mxPoint x="100" y="390" as="sourcePoint" />
            <mxPoint x="160" y="350" as="targetPoint" />
          </mxGeometry>
        </mxCell>
        <mxCell id="6g2W2QSspoGPn6mh1SmF-5" value="Cognito Identification" style="sketch=0;points=[[0,0,0],[0.25,0,0],[0.5,0,0],[0.75,0,0],[1,0,0],[0,1,0],[0.25,1,0],[0.5,1,0],[0.75,1,0],[1,1,0],[0,0.25,0],[0,0.5,0],[0,0.75,0],[1,0.25,0],[1,0.5,0],[1,0.75,0]];outlineConnect=0;fontColor=#232F3E;fillColor=#DD344C;strokeColor=#ffffff;dashed=0;verticalLabelPosition=bottom;verticalAlign=top;align=center;html=1;fontSize=12;fontStyle=0;aspect=fixed;shape=mxgraph.aws4.resourceIcon;resIcon=mxgraph.aws4.cognito;" parent="1" vertex="1">
          <mxGeometry x="332" y="140" width="78" height="78" as="geometry" />
        </mxCell>
        <mxCell id="6g2W2QSspoGPn6mh1SmF-6" value="Amplify + React Framework" style="sketch=0;points=[[0,0,0],[0.25,0,0],[0.5,0,0],[0.75,0,0],[1,0,0],[0,1,0],[0.25,1,0],[0.5,1,0],[0.75,1,0],[1,1,0],[0,0.25,0],[0,0.5,0],[0,0.75,0],[1,0.25,0],[1,0.5,0],[1,0.75,0]];outlineConnect=0;fontColor=#232F3E;fillColor=#DD344C;strokeColor=#ffffff;dashed=0;verticalLabelPosition=bottom;verticalAlign=top;align=center;html=1;fontSize=12;fontStyle=0;aspect=fixed;shape=mxgraph.aws4.resourceIcon;resIcon=mxgraph.aws4.amplify;" parent="1" vertex="1">
          <mxGeometry x="200" y="301" width="78" height="78" as="geometry" />
        </mxCell>
        <mxCell id="ExZvxduwD3NTuQLcTQ38-1" value="" style="shape=image;html=1;verticalAlign=top;verticalLabelPosition=bottom;labelBackgroundColor=#ffffff;imageAspect=0;aspect=fixed;image=https://cdn1.iconfinder.com/data/icons/ui-essential-17/32/UI_Essential_Outline_1_essential-app-ui-messages-talk-128.png" parent="1" vertex="1">
          <mxGeometry x="160" y="320" width="40" height="40" as="geometry" />
        </mxCell>
        <mxCell id="ExZvxduwD3NTuQLcTQ38-2" value="Amazon S3" style="sketch=0;outlineConnect=0;fontColor=#232F3E;gradientColor=none;strokeColor=#ffffff;fillColor=#232F3E;dashed=0;verticalLabelPosition=middle;verticalAlign=bottom;align=center;html=1;whiteSpace=wrap;fontSize=10;fontStyle=1;spacing=3;shape=mxgraph.aws4.productIcon;prIcon=mxgraph.aws4.s3;" parent="1" vertex="1">
          <mxGeometry x="330" y="430" width="80" height="100" as="geometry" />
        </mxCell>
        <mxCell id="ExZvxduwD3NTuQLcTQ38-3" value="Chime SDK messaging" style="sketch=0;points=[[0,0,0],[0.25,0,0],[0.5,0,0],[0.75,0,0],[1,0,0],[0,1,0],[0.25,1,0],[0.5,1,0],[0.75,1,0],[1,1,0],[0,0.25,0],[0,0.5,0],[0,0.75,0],[1,0.25,0],[1,0.5,0],[1,0.75,0]];outlineConnect=0;fontColor=#232F3E;fillColor=#DD344C;strokeColor=#ffffff;dashed=0;verticalLabelPosition=bottom;verticalAlign=top;align=center;html=1;fontSize=12;fontStyle=0;aspect=fixed;shape=mxgraph.aws4.resourceIcon;resIcon=mxgraph.aws4.chime_sdk;" parent="1" vertex="1">
          <mxGeometry x="580" y="301" width="78" height="78" as="geometry" />
        </mxCell>
        <mxCell id="ExZvxduwD3NTuQLcTQ38-4" value="" style="endArrow=classic;startArrow=classic;html=1;rounded=0;" parent="1" edge="1">
          <mxGeometry width="50" height="50" relative="1" as="geometry">
            <mxPoint x="240" y="290" as="sourcePoint" />
            <mxPoint x="330" y="180" as="targetPoint" />
          </mxGeometry>
        </mxCell>
        <mxCell id="ExZvxduwD3NTuQLcTQ38-5" value="Registration login / Authenticate" style="edgeLabel;html=1;align=center;verticalAlign=middle;resizable=0;points=[];" parent="ExZvxduwD3NTuQLcTQ38-4" vertex="1" connectable="0">
          <mxGeometry x="-0.1796" y="-1" relative="1" as="geometry">
            <mxPoint as="offset" />
          </mxGeometry>
        </mxCell>
        <mxCell id="ExZvxduwD3NTuQLcTQ38-8" value="" style="endArrow=classic;startArrow=classic;html=1;rounded=0;" parent="1" edge="1">
          <mxGeometry width="50" height="50" relative="1" as="geometry">
            <mxPoint x="320" y="470" as="sourcePoint" />
            <mxPoint x="240" y="400" as="targetPoint" />
          </mxGeometry>
        </mxCell>
        <mxCell id="ExZvxduwD3NTuQLcTQ38-9" value="store images / files" style="edgeLabel;html=1;align=center;verticalAlign=middle;resizable=0;points=[];" parent="ExZvxduwD3NTuQLcTQ38-8" vertex="1" connectable="0">
          <mxGeometry x="-0.3515" relative="1" as="geometry">
            <mxPoint x="-44" y="12" as="offset" />
          </mxGeometry>
        </mxCell>
        <mxCell id="Gu14bvD0OnjftGrYfDw7-2" value="" style="sketch=0;outlineConnect=0;fontColor=#232F3E;gradientColor=none;fillColor=#7AA116;strokeColor=none;dashed=0;verticalLabelPosition=bottom;verticalAlign=top;align=center;html=1;fontSize=12;fontStyle=0;aspect=fixed;pointerEvents=1;shape=mxgraph.aws4.lambda_function;" vertex="1" parent="1">
          <mxGeometry x="560" y="50" width="78" height="78" as="geometry" />
        </mxCell>
        <mxCell id="Gu14bvD0OnjftGrYfDw7-3" value="" style="endArrow=classic;startArrow=classic;html=1;rounded=0;" edge="1" parent="1" source="Gu14bvD0OnjftGrYfDw7-2" target="6g2W2QSspoGPn6mh1SmF-5">
          <mxGeometry width="50" height="50" relative="1" as="geometry">
            <mxPoint x="400" y="300" as="sourcePoint" />
            <mxPoint x="450" y="250" as="targetPoint" />
          </mxGeometry>
        </mxCell>
        <mxCell id="Gu14bvD0OnjftGrYfDw7-4" value="POST authentication-&amp;gt; Triger lambda" style="edgeLabel;html=1;align=center;verticalAlign=middle;resizable=0;points=[];" vertex="1" connectable="0" parent="Gu14bvD0OnjftGrYfDw7-3">
          <mxGeometry x="-0.0551" y="-1" relative="1" as="geometry">
            <mxPoint as="offset" />
          </mxGeometry>
        </mxCell>
        <mxCell id="Gu14bvD0OnjftGrYfDw7-5" value="" style="endArrow=classic;startArrow=classic;html=1;rounded=0;entryX=0.5;entryY=0;entryDx=0;entryDy=0;entryPerimeter=0;" edge="1" parent="1" source="Gu14bvD0OnjftGrYfDw7-2" target="ExZvxduwD3NTuQLcTQ38-3">
          <mxGeometry width="50" height="50" relative="1" as="geometry">
            <mxPoint x="440" y="340" as="sourcePoint" />
            <mxPoint x="490" y="290" as="targetPoint" />
          </mxGeometry>
        </mxCell>
        <mxCell id="Gu14bvD0OnjftGrYfDw7-6" value="Create Chime User" style="edgeLabel;html=1;align=center;verticalAlign=middle;resizable=0;points=[];" vertex="1" connectable="0" parent="Gu14bvD0OnjftGrYfDw7-5">
          <mxGeometry x="-0.2314" y="-1" relative="1" as="geometry">
            <mxPoint x="2" y="15" as="offset" />
          </mxGeometry>
        </mxCell>
        <mxCell id="Gu14bvD0OnjftGrYfDw7-7" value="" style="endArrow=classic;startArrow=classic;html=1;rounded=0;entryX=0;entryY=0.5;entryDx=0;entryDy=0;entryPerimeter=0;" edge="1" parent="1" target="ExZvxduwD3NTuQLcTQ38-3">
          <mxGeometry width="50" height="50" relative="1" as="geometry">
            <mxPoint x="280" y="340" as="sourcePoint" />
            <mxPoint x="330" y="290" as="targetPoint" />
          </mxGeometry>
        </mxCell>
        <mxCell id="Gu14bvD0OnjftGrYfDw7-8" value="Send / Receives messages" style="edgeLabel;html=1;align=center;verticalAlign=middle;resizable=0;points=[];" vertex="1" connectable="0" parent="Gu14bvD0OnjftGrYfDw7-7">
          <mxGeometry x="-0.1347" relative="1" as="geometry">
            <mxPoint y="10" as="offset" />
          </mxGeometry>
        </mxCell>
      </root>
    </mxGraphModel>
  </diagram>
</mxfile>
